<svg xmlns="http://www.w3.org/2000/svg" viewBox="0 0 103.92 100"><defs><style>.cls-1{isolation:isolate;}.cls-2{fill:#ff86cf;}.cls-3{opacity:0.2;}.cls-3,.cls-5{mix-blend-mode:color-burn;}.cls-4{fill:#282b36;}.cls-5{opacity:0.4;}</style></defs><title>icon</title><g class="cls-1"><g id="Layer_2" data-name="Layer 2"><g id="Layer_3" data-name="Layer 3"><polygon class="cls-2" points="86.59 0 103.92 9.98 103.92 30.03 69.28 50 103.92 69.98 103.92 90 86.6 100 34.64 70.02 34.64 90 17.32 100 0 90 0 10.02 17.31 0 51.95 20 86.59 0"/><g class="cls-3"><polygon class="cls-4" points="103.92 10.02 51.97 40.03 51.96 60.03 103.92 30.03 103.92 10.02"/><polygon class="cls-4" points="103.92 69.98 86.61 80 86.6 100 103.92 90 103.92 69.98"/><polygon class="cls-4" points="34.64 90 17.32 100 17.32 40 34.64 50 34.64 90"/></g><g class="cls-5"><polygon class="cls-4" points="86.61 80 34.64 50 34.64 70.02 86.6 100 86.61 80"/><polygon class="cls-4" points="51.97 40 51.95 60 17.32 40 17.32 100 0 90 0 10.02 51.97 40"/></g></g></g></g></svg>