<svg xmlns="http://www.w3.org/2000/svg" viewBox="0 0 104 100"><defs><style>.cls-1{isolation:isolate;}.cls-2{fill:#ff86cf;}.cls-3{opacity:0.5;}.cls-3,.cls-5{mix-blend-mode:color-burn;}.cls-4{fill:#282b36;}.cls-5,.cls-6{opacity:0.3;}</style></defs><title>icon</title><g class="cls-1"><g id="Layer_2" data-name="Layer 2"><g id="Layer_3" data-name="Layer 3"><polygon class="cls-2" points="86.56 0 51.93 19.99 17.31 0 0 9.95 0 89.99 17.33 100 51.84 79.93 86.66 100 104 89.99 104 69.96 69.29 49.99 103.99 29.98 103.99 9.95 86.56 0"/><g class="cls-3"><polygon class="cls-4" points="103.99 9.95 52 39.99 51.99 60 103.99 29.98 103.99 9.95"/><polygon class="cls-4" points="104 69.96 86.67 79.99 86.66 100 104 89.99 104 69.96"/><polygon class="cls-4" points="52 79.99 17.33 100 17.33 39.96 34.66 49.97 34.66 69.96 51.99 60 52 79.99"/></g><g class="cls-5"><polygon class="cls-4" points="86.67 79.99 51.99 59.97 52.01 80 86.66 100 86.67 79.99"/><polygon class="cls-4" points="52.01 39.96 51.99 59.97 17.33 39.96 17.33 100 0 89.99 0 9.95 52.01 39.96"/></g><g class="cls-6"><polygon class="cls-4" points="17.41 40.01 51.99 59.98 69.29 49.99 86.58 59.98 69.29 69.95 60.41 84.85 51.84 79.93 42.96 84.98 34.7 69.98 17.41 40.01"/></g></g></g></g></svg>