<svg xmlns="http://www.w3.org/2000/svg" viewBox="0 0 1529.93 471.9"><defs><style>.cls-1,.cls-5{fill:#fff;}.cls-1,.cls-2{stroke:#fff;stroke-linejoin:bevel;stroke-width:5px;}.cls-2{fill:#e91e63;}.cls-3{opacity:0.5;}.cls-4{fill:#212121;}</style></defs><title>logo-light</title><g id="Layer_2" data-name="Layer 2"><g id="Layer_3" data-name="Layer 3"><polygon class="cls-1" points="348.91 102.12 348.91 368.78 175.71 469.74 2.5 368.83 2.5 102.22 175.68 2.17 348.91 102.12"/><polygon class="cls-2" points="175.68 268.83 233.44 302.12 175.73 335.5 117.97 302.22 175.68 268.83"/><polygon class="cls-2" points="175.71 268.83 233.44 302.17 233.44 235.5 175.71 202.17 175.71 268.83"/><polygon class="cls-2" points="117.97 235.5 175.71 202.17 175.71 268.83 117.97 302.17 117.97 235.5"/><polygon class="cls-2" points="117.97 302.17 175.71 335.5 175.71 268.83 117.97 235.5 117.97 302.17"/><polygon class="cls-2" points="175.71 268.83 233.44 235.5 233.44 302.17 175.71 335.5 175.71 268.83"/><polygon class="cls-2" points="175.68 202.17 233.44 235.45 175.73 268.83 117.97 235.55 175.68 202.17"/><polygon class="cls-2" points="233.41 302.17 291.18 335.45 233.47 368.83 175.71 335.55 233.41 302.17"/><polygon class="cls-2" points="233.44 302.17 291.18 335.5 291.18 268.83 233.44 235.5 233.44 302.17"/><polygon class="cls-2" points="175.71 268.83 233.44 235.5 233.44 302.17 175.71 335.5 175.71 268.83"/><polygon class="cls-2" points="175.71 335.5 233.44 368.83 233.44 302.17 175.71 268.83 175.71 335.5"/><polygon class="cls-2" points="233.44 302.17 291.18 268.83 291.18 335.5 233.44 368.83 233.44 302.17"/><polygon class="cls-2" points="233.41 235.5 291.18 268.78 233.47 302.17 175.71 268.88 233.41 235.5"/><polygon class="cls-2" points="291.15 335.5 348.91 368.78 291.2 402.17 233.44 368.88 291.15 335.5"/><polygon class="cls-2" points="291.18 335.5 348.91 368.83 348.91 302.17 291.18 268.83 291.18 335.5"/><polygon class="cls-2" points="233.44 302.17 291.18 268.83 291.18 335.5 233.44 368.83 233.44 302.17"/><polygon class="cls-2" points="233.44 368.83 291.18 402.17 291.18 335.5 233.44 302.17 233.44 368.83"/><polygon class="cls-2" points="291.18 335.5 348.91 302.17 348.91 368.83 291.18 402.17 291.18 335.5"/><polygon class="cls-2" points="291.15 268.83 348.91 302.12 291.2 335.5 233.44 302.22 291.15 268.83"/><polygon class="cls-2" points="175.68 68.83 233.44 102.12 175.73 135.5 117.97 102.22 175.68 68.83"/><polygon class="cls-2" points="175.71 68.83 233.44 102.17 233.44 35.5 175.71 2.17 175.71 68.83"/><polygon class="cls-2" points="117.97 35.5 175.71 2.17 175.71 68.83 117.97 102.17 117.97 35.5"/><polygon class="cls-2" points="117.97 102.17 175.71 135.5 175.71 68.83 117.97 35.5 117.97 102.17"/><polygon class="cls-2" points="175.71 68.83 233.44 35.5 233.44 102.17 175.71 135.5 175.71 68.83"/><polygon class="cls-2" points="175.68 2.17 233.44 35.45 175.73 68.83 117.97 35.55 175.68 2.17"/><polygon class="cls-2" points="117.94 102.17 175.71 135.45 118 168.83 60.23 135.55 117.94 102.17"/><polygon class="cls-2" points="117.97 102.17 175.71 135.5 175.71 68.83 117.97 35.5 117.97 102.17"/><polygon class="cls-2" points="60.23 68.83 117.97 35.5 117.97 102.17 60.23 135.5 60.23 68.83"/><polygon class="cls-2" points="60.23 135.5 117.97 168.83 117.97 102.17 60.23 68.83 60.23 135.5"/><polygon class="cls-1" points="117.97 102.17 175.71 68.83 175.71 135.5 117.97 168.83 117.97 102.17"/><polygon class="cls-2" points="117.94 35.5 175.71 68.78 118 102.17 60.23 68.88 117.94 35.5"/><polygon class="cls-2" points="233.41 102.17 291.18 135.45 233.47 168.83 175.71 135.55 233.41 102.17"/><polygon class="cls-2" points="233.44 102.17 291.18 135.5 291.18 68.83 233.44 35.5 233.44 102.17"/><polygon class="cls-2" points="175.71 68.83 233.44 35.5 233.44 102.17 175.71 135.5 175.71 68.83"/><polygon class="cls-1" points="175.71 135.5 233.44 168.83 233.44 102.17 175.71 68.83 175.71 135.5"/><polygon class="cls-2" points="233.44 102.17 291.18 68.83 291.18 135.5 233.44 168.83 233.44 102.17"/><polygon class="cls-2" points="233.41 35.5 291.18 68.78 233.47 102.17 175.71 68.88 233.41 35.5"/><polygon class="cls-2" points="60.21 335.5 117.97 368.78 60.26 402.17 2.5 368.88 60.21 335.5"/><polygon class="cls-2" points="60.23 335.5 117.97 368.83 117.97 302.17 60.23 268.83 60.23 335.5"/><polygon class="cls-2" points="2.5 302.17 60.23 268.83 60.23 335.5 2.5 368.83 2.5 302.17"/><polygon class="cls-2" points="2.5 368.83 60.23 402.17 60.23 335.5 2.5 302.17 2.5 368.83"/><polygon class="cls-2" points="60.23 335.5 117.97 302.17 117.97 368.83 60.23 402.17 60.23 335.5"/><polygon class="cls-2" points="60.21 268.83 117.97 302.12 60.26 335.5 2.5 302.22 60.21 268.83"/><polygon class="cls-2" points="291.15 135.5 348.91 168.78 291.2 202.17 233.44 168.88 291.15 135.5"/><polygon class="cls-2" points="291.18 135.5 348.91 168.83 348.91 102.17 291.18 68.83 291.18 135.5"/><polygon class="cls-2" points="233.44 102.17 291.18 68.83 291.18 135.5 233.44 168.83 233.44 102.17"/><polygon class="cls-2" points="233.44 168.83 291.18 202.17 291.18 135.5 233.44 102.17 233.44 168.83"/><polygon class="cls-2" points="291.18 135.5 348.91 102.17 348.91 168.83 291.18 202.17 291.18 135.5"/><polygon class="cls-2" points="291.15 68.83 348.91 102.12 291.2 135.5 233.44 102.22 291.15 68.83"/><polygon class="cls-2" points="60.21 268.83 117.97 302.12 60.26 335.5 2.5 302.22 60.21 268.83"/><polygon class="cls-2" points="60.23 268.83 117.97 302.17 117.97 235.5 60.23 202.17 60.23 268.83"/><polygon class="cls-2" points="2.5 235.5 60.23 202.17 60.23 268.83 2.5 302.17 2.5 235.5"/><polygon class="cls-2" points="2.5 302.17 60.23 335.5 60.23 268.83 2.5 235.5 2.5 302.17"/><polygon class="cls-2" points="60.23 268.83 117.97 235.5 117.97 302.17 60.23 335.5 60.23 268.83"/><polygon class="cls-2" points="60.21 202.17 117.97 235.45 60.26 268.83 2.5 235.55 60.21 202.17"/><polygon class="cls-2" points="60.21 202.17 117.97 235.45 60.26 268.83 2.5 235.55 60.21 202.17"/><polygon class="cls-2" points="60.23 202.17 117.97 235.5 117.97 168.83 60.23 135.5 60.23 202.17"/><polygon class="cls-2" points="2.5 168.83 60.23 135.5 60.23 202.17 2.5 235.5 2.5 168.83"/><polygon class="cls-2" points="2.5 235.5 60.23 268.83 60.23 202.17 2.5 168.83 2.5 235.5"/><polygon class="cls-2" points="60.23 202.17 117.97 168.83 117.97 235.5 60.23 268.83 60.23 202.17"/><polygon class="cls-2" points="60.21 135.5 117.97 168.78 60.26 202.17 2.5 168.88 60.21 135.5"/><polygon class="cls-2" points="60.21 135.5 117.97 168.78 60.26 202.17 2.5 168.88 60.21 135.5"/><polygon class="cls-2" points="60.23 135.5 117.97 168.83 117.97 102.17 60.23 68.83 60.23 135.5"/><polygon class="cls-2" points="2.5 102.17 60.23 68.83 60.23 135.5 2.5 168.83 2.5 102.17"/><polygon class="cls-2" points="2.5 168.83 60.23 202.17 60.23 135.5 2.5 102.17 2.5 168.83"/><polygon class="cls-2" points="60.23 135.5 117.97 102.17 117.97 168.83 60.23 202.17 60.23 135.5"/><polygon class="cls-2" points="60.21 68.83 117.97 102.12 60.26 135.5 2.5 102.22 60.21 68.83"/><polygon class="cls-2" points="117.94 168.83 175.71 202.12 118 235.5 60.23 202.22 117.94 168.83"/><polygon class="cls-2" points="117.97 168.83 175.71 202.17 175.71 135.5 117.97 102.17 117.97 168.83"/><polygon class="cls-2" points="60.23 135.5 117.97 102.17 117.97 168.83 60.23 202.17 60.23 135.5"/><polygon class="cls-2" points="60.23 202.17 117.97 235.5 117.97 168.83 60.23 135.5 60.23 202.17"/><polygon class="cls-2" points="117.97 168.83 175.71 135.5 175.71 202.17 117.97 235.5 117.97 168.83"/><polygon class="cls-2" points="117.94 102.17 175.71 135.45 118 168.83 60.23 135.55 117.94 102.17"/><polygon class="cls-2" points="233.41 168.83 291.18 202.12 233.47 235.5 175.71 202.22 233.41 168.83"/><polygon class="cls-2" points="233.44 168.83 291.18 202.17 291.18 135.5 233.44 102.17 233.44 168.83"/><polygon class="cls-2" points="175.71 135.5 233.44 102.17 233.44 168.83 175.71 202.17 175.71 135.5"/><polygon class="cls-2" points="175.71 202.17 233.44 235.5 233.44 168.83 175.71 135.5 175.71 202.17"/><polygon class="cls-2" points="233.44 168.83 291.18 135.5 291.18 202.17 233.44 235.5 233.44 168.83"/><polygon class="cls-2" points="233.41 102.17 291.18 135.45 233.47 168.83 175.71 135.55 233.41 102.17"/><polygon class="cls-2" points="175.68 202.17 233.44 235.45 175.73 268.83 117.97 235.55 175.68 202.17"/><polygon class="cls-2" points="175.71 202.17 233.44 235.5 233.44 168.83 175.71 135.5 175.71 202.17"/><polygon class="cls-2" points="117.97 168.83 175.71 135.5 175.71 202.17 117.97 235.5 117.97 168.83"/><polygon class="cls-2" points="117.97 235.5 175.71 268.83 175.71 202.17 117.97 168.83 117.97 235.5"/><polygon class="cls-2" points="175.71 202.17 233.44 168.83 233.44 235.5 175.71 268.83 175.71 202.17"/><polygon class="cls-2" points="175.68 135.5 233.44 168.78 175.73 202.17 117.97 168.88 175.68 135.5"/><g class="cls-3"><polygon class="cls-4" points="60.23 202.17 175.68 268.83 233.44 235.5 291.18 268.83 233.44 302.12 204.57 352.17 117.97 302.22 117.97 272.06 60.23 268.83 60.23 202.17"/></g><path class="cls-5" d="M450.67,102.27c18.76-3.43,46.2-5.82,74.87-5.82,38.73,0,65.16,6.54,83.35,21.79,14.88,12.37,23.3,31.1,23.3,54.28,0,34.81-23.66,58.55-49.17,67.52v1.15c19.59,7.42,31,26,37.7,52.31,8.6,33.82,16,64.82,21.35,75.33h-50.7c-4.2-7.82-10.65-30.14-18.21-63.76-7.76-35.24-20.57-46.66-48.63-47.31H499.67V368.83h-49Zm49,119.29h29.21C562.37,221.56,583,203.9,583,177c0-29.41-20.72-43.22-52.64-43.34-15.67,0-25.65,1.22-30.68,2.51Z"/><path class="cls-5" d="M712.91,284.88c1.31,35.38,28.69,50.84,60.29,50.84,22.71,0,39-3.56,53.88-9l7.3,34c-16.71,7.1-39.89,12.39-68.22,12.39-63.38,0-100.51-39.16-100.51-99,0-53.87,32.69-104.86,95.48-104.86,63.45,0,84.11,52.18,84.11,94.95a103.64,103.64,0,0,1-1.74,20.73Zm85.85-34.41c.22-18.08-7.64-47.57-40.71-47.57-30.38,0-43,27.6-45.22,47.57Z"/><path class="cls-5" d="M994.8,368.83l-3.38-21.75h-1.18C978.4,362.49,958,373.24,932.7,373.24c-39.6,0-61.54-28.29-61.54-58.06,0-49.26,43.89-74.2,115.79-73.92V238c0-12.82-5.08-34.16-39.63-34-19.13,0-39.18,6.16-52.49,14.56l-9.78-32c14.75-9,40-17.33,70.76-17.33,62.61,0,80.48,39.48,80.48,82.31v70.3c0,17.74.89,35,3,47Zm-6.53-95.61c-34.83-.46-68.15,6.88-68.15,36.61,0,19.11,12.54,28.12,28.14,28.12,19.7,0,33.89-12.72,38.63-27a37.26,37.26,0,0,0,1.38-10.73Z"/><path class="cls-5" d="M1090.22,98.56h49V222.89h1.12c6.45-10.34,13.37-20,19.8-29.12L1231,98.56h60.76l-93.16,115,99.24,155.31h-57.74l-76.54-123.74L1139.22,274v94.86h-49Z"/><path class="cls-5" d="M1376.15,119c.06,14.74-10.65,26.62-28.13,26.62-16.37,0-27.1-11.88-27-26.62,0-15,11.06-26.69,27.64-26.69C1365.37,92.29,1376,103.81,1376.15,119Zm-52.29,249.85V173.61h49.4V368.83Z"/><path class="cls-5" d="M1483,117.7v55.91h47v36.78h-47v86.15c0,23.89,6.36,36,25.25,36a74.55,74.55,0,0,0,19.17-2.15l1,37.56C1521,370.75,1508,373,1492.46,373c-18.14,0-33.25-6.18-42.42-16.08-10.61-11.21-15.44-29.18-15.44-54.76V210.39h-27.86V173.61h27.86V129.4Z"/></g></g></svg>