<svg xmlns="http://www.w3.org/2000/svg" viewBox="0 0 981.76 216.47"><defs><style>.cls-1{isolation:isolate;}.cls-2{fill:#ff86cf;stroke:#282b36;stroke-linejoin:bevel;stroke-width:3px;}.cls-3{opacity:0.2;}.cls-3,.cls-5{mix-blend-mode:color-burn;}.cls-4{fill:#282b36;}.cls-5,.cls-6{opacity:0.4;}</style></defs><title>logo-dark</title><g class="cls-1"><g id="Layer_2" data-name="Layer 2"><g id="Layer_3" data-name="Layer 3"><polygon class="cls-2" points="112.86 129.62 149.92 150.97 112.9 172.39 75.84 151.04 112.86 129.62"/><polygon class="cls-2" points="112.5 129.61 149.5 150.97 149.5 108.25 112.5 86.88 112.5 129.61"/><polygon class="cls-2" points="75.5 108.25 112.5 86.88 112.5 129.61 75.5 150.97 75.5 108.25"/><polygon class="cls-2" points="75.5 151 112.5 172.36 112.5 129.63 75.5 108.27 75.5 151"/><polygon class="cls-2" points="112.5 129.63 149.5 108.27 149.5 151 112.5 172.36 112.5 129.63"/><polygon class="cls-2" points="112.86 86.85 149.92 108.2 112.9 129.62 75.84 108.27 112.86 86.85"/><polygon class="cls-2" points="149.91 151.01 186.97 172.36 149.94 193.78 112.88 172.43 149.91 151.01"/><polygon class="cls-2" points="149.5 151 186.5 172.36 186.5 129.63 149.5 108.27 149.5 151"/><polygon class="cls-2" points="112.5 129.63 149.5 108.27 149.5 151 112.5 172.36 112.5 129.63"/><polygon class="cls-2" points="112.5 172.38 149.5 193.74 149.5 151.02 112.5 129.66 112.5 172.38"/><polygon class="cls-2" points="149.5 151.02 186.5 129.66 186.5 172.38 149.5 193.74 149.5 151.02"/><polygon class="cls-2" points="149.91 108.23 186.97 129.59 149.94 151.01 112.88 129.65 149.91 108.23"/><polygon class="cls-2" points="186.95 172.39 224.01 193.75 186.99 215.17 149.92 193.81 186.95 172.39"/><polygon class="cls-2" points="186.5 172.38 223.5 193.74 223.5 151.02 186.5 129.66 186.5 172.38"/><polygon class="cls-2" points="149.5 151.02 186.5 129.66 186.5 172.38 149.5 193.74 149.5 151.02"/><polygon class="cls-2" points="149.5 193.77 186.5 215.13 186.5 172.41 149.5 151.04 149.5 193.77"/><polygon class="cls-2" points="186.5 172.41 223.5 151.04 223.5 193.77 186.5 215.13 186.5 172.41"/><polygon class="cls-2" points="186.95 129.62 224.01 150.97 186.99 172.39 149.92 151.04 186.95 129.62"/><polygon class="cls-2" points="38.78 172.39 75.84 193.75 38.81 215.17 1.75 193.81 38.78 172.39"/><polygon class="cls-2" points="38.5 172.38 75.5 193.74 75.5 151.02 38.5 129.66 38.5 172.38"/><polygon class="cls-2" points="1.5 151.02 38.5 129.66 38.5 172.38 1.5 193.74 1.5 151.02"/><polygon class="cls-2" points="1.5 193.77 38.5 215.13 38.5 172.41 1.5 151.04 1.5 193.77"/><polygon class="cls-2" points="38.5 172.41 75.5 151.04 75.5 193.77 38.5 215.13 38.5 172.41"/><polygon class="cls-2" points="38.78 129.62 75.84 150.97 38.81 172.39 1.75 151.04 38.78 129.62"/><polygon class="cls-2" points="186.95 44.07 224.01 65.43 186.99 86.85 149.92 65.49 186.95 44.07"/><polygon class="cls-2" points="186.5 44.06 223.5 65.42 223.5 22.7 186.5 1.34 186.5 44.06"/><polygon class="cls-2" points="149.5 22.7 186.5 1.34 186.5 44.06 149.5 65.42 149.5 22.7"/><polygon class="cls-2" points="149.5 65.45 186.5 86.81 186.5 44.09 149.5 22.72 149.5 65.45"/><polygon class="cls-2" points="186.5 44.09 223.5 22.72 223.5 65.45 186.5 86.81 186.5 44.09"/><polygon class="cls-2" points="186.95 1.3 224.01 22.65 186.99 44.07 149.92 22.72 186.95 1.3"/><polygon class="cls-2" points="38.78 129.62 75.84 150.97 38.81 172.39 1.75 151.04 38.78 129.62"/><polygon class="cls-2" points="38.5 129.61 75.5 150.97 75.5 108.25 38.5 86.88 38.5 129.61"/><polygon class="cls-2" points="1.5 108.25 38.5 86.88 38.5 129.61 1.5 150.97 1.5 108.25"/><polygon class="cls-2" points="1.5 151 38.5 172.36 38.5 129.63 1.5 108.27 1.5 151"/><polygon class="cls-2" points="38.5 129.63 75.5 108.27 75.5 151 38.5 172.36 38.5 129.63"/><polygon class="cls-2" points="38.78 86.85 75.84 108.2 38.81 129.62 1.75 108.27 38.78 86.85"/><polygon class="cls-2" points="38.78 86.85 75.84 108.2 38.81 129.62 1.75 108.27 38.78 86.85"/><polygon class="cls-2" points="38.5 86.83 75.5 108.2 75.5 65.47 38.5 44.11 38.5 86.83"/><polygon class="cls-2" points="1.5 65.47 38.5 44.11 38.5 86.83 1.5 108.2 1.5 65.47"/><polygon class="cls-2" points="1.5 108.22 38.5 129.58 38.5 86.86 1.5 65.5 1.5 108.22"/><polygon class="cls-2" points="38.5 86.86 75.5 65.5 75.5 108.22 38.5 129.58 38.5 86.86"/><polygon class="cls-2" points="38.78 44.07 75.84 65.43 38.81 86.85 1.75 65.49 38.78 44.07"/><polygon class="cls-2" points="38.78 44.07 75.84 65.43 38.81 86.85 1.75 65.49 38.78 44.07"/><polygon class="cls-2" points="38.5 44.06 75.5 65.42 75.5 22.7 38.5 1.34 38.5 44.06"/><polygon class="cls-2" points="1.5 22.7 38.5 1.34 38.5 44.06 1.5 65.42 1.5 22.7"/><polygon class="cls-2" points="1.5 65.45 38.5 86.81 38.5 44.09 1.5 22.72 1.5 65.45"/><polygon class="cls-2" points="38.5 44.09 75.5 22.72 75.5 65.45 38.5 86.81 38.5 44.09"/><polygon class="cls-2" points="38.78 1.3 75.84 22.65 38.81 44.07 1.75 22.72 38.78 1.3"/><polygon class="cls-2" points="75.82 65.46 112.88 86.81 75.86 108.23 38.79 86.88 75.82 65.46"/><polygon class="cls-2" points="75.5 65.45 112.5 86.81 112.5 44.09 75.5 22.72 75.5 65.45"/><polygon class="cls-2" points="38.5 44.09 75.5 22.72 75.5 65.45 38.5 86.81 38.5 44.09"/><polygon class="cls-2" points="38.5 86.83 75.5 108.2 75.5 65.47 38.5 44.11 38.5 86.83"/><polygon class="cls-2" points="75.5 65.47 112.5 44.11 112.5 86.83 75.5 108.2 75.5 65.47"/><polygon class="cls-2" points="75.82 22.69 112.88 44.04 75.86 65.46 38.79 44.11 75.82 22.69"/><polygon class="cls-2" points="149.91 65.46 186.97 86.81 149.94 108.23 112.88 86.88 149.91 65.46"/><polygon class="cls-2" points="149.5 65.45 186.5 86.81 186.5 44.09 149.5 22.72 149.5 65.45"/><polygon class="cls-2" points="112.5 44.09 149.5 22.72 149.5 65.45 112.5 86.81 112.5 44.09"/><polygon class="cls-2" points="112.5 86.83 149.5 108.2 149.5 65.47 112.5 44.11 112.5 86.83"/><polygon class="cls-2" points="149.5 65.47 186.5 44.11 186.5 86.83 149.5 108.2 149.5 65.47"/><polygon class="cls-2" points="149.91 22.69 186.97 44.04 149.94 65.46 112.88 44.11 149.91 22.69"/><polygon class="cls-2" points="112.86 86.85 149.92 108.2 112.9 129.62 75.84 108.27 112.86 86.85"/><polygon class="cls-2" points="112.5 86.83 149.5 108.2 149.5 65.47 112.5 44.11 112.5 86.83"/><polygon class="cls-2" points="75.5 65.47 112.5 44.11 112.5 86.83 75.5 108.2 75.5 65.47"/><polygon class="cls-2" points="75.5 108.22 112.5 129.58 112.5 86.86 75.5 65.5 75.5 108.22"/><polygon class="cls-2" points="112.5 86.86 149.5 65.5 149.5 108.22 112.5 129.58 112.5 86.86"/><polygon class="cls-2" points="112.86 44.07 149.92 65.43 112.9 86.85 75.84 65.49 112.86 44.07"/><g class="cls-3"><polygon class="cls-4" points="224.25 22.59 113.01 86.86 112.99 129.68 224.25 65.45 224.25 22.59"/><polygon class="cls-4" points="224.25 151 187.19 172.44 187.17 215.26 224.25 193.85 224.25 151"/><polygon class="cls-4" points="75.92 193.85 38.83 215.26 38.83 86.79 75.92 108.2 75.92 193.85"/></g><g class="cls-5"><polygon class="cls-4" points="187.19 172.44 75.92 108.2 75.92 151.06 187.17 215.26 187.19 172.44"/><polygon class="cls-4" points="113.02 86.79 112.98 129.62 38.83 86.79 38.83 215.26 1.75 193.85 1.75 22.59 113.02 86.79"/></g><g class="cls-6"><polygon class="cls-4" points="39 86.9 112.98 129.63 150 108.27 187 129.63 150 150.96 131.5 183.03 76 151.02 76 131.7 39 129.63 39 86.9"/></g><path class="cls-4" d="M289.3,44.32c12-2.2,29.64-3.73,48-3.73,24.84,0,41.8,4.19,53.47,14,9.55,7.94,14.95,19.95,14.95,34.83,0,22.33-15.18,37.56-31.55,43.32v.73c12.57,4.76,19.89,16.71,24.19,33.56,5.52,21.7,10.24,41.59,13.7,48.34H379.57c-2.69-5-6.84-19.34-11.69-40.91-5-22.61-13.19-29.94-31.19-30.36h-16v71.27H289.3Zm31.43,76.54h18.75c21.48,0,34.71-11.33,34.71-28.56,0-18.87-13.29-27.74-33.77-27.81-10.05,0-16.46.78-19.69,1.61Z" transform="translate(0 -21.57)"/><path class="cls-4" d="M457.55,161.48c.84,22.7,18.41,32.62,38.68,32.62,14.57,0,25-2.28,34.57-5.8l4.69,21.8c-10.73,4.55-25.59,8-43.77,8-40.67,0-64.49-25.13-64.49-63.51,0-34.56,21-67.27,61.26-67.27,40.71,0,54,33.47,54,60.91a66.66,66.66,0,0,1-1.12,13.3Zm55.08-22.07c.14-11.6-4.9-30.52-26.12-30.52-19.49,0-27.6,17.7-29,30.52Z" transform="translate(0 -21.57)"/><path class="cls-4" d="M638.41,215.35l-2.16-14h-.76c-7.6,9.89-20.7,16.79-36.92,16.79-25.41,0-39.48-18.16-39.48-37.26,0-31.6,28.16-47.6,74.29-47.42v-2.07c0-8.23-3.26-21.92-25.43-21.84-12.27,0-25.14,4-33.68,9.35L568,98.38c9.46-5.75,25.68-11.11,45.4-11.11,40.17,0,51.64,25.33,51.64,52.81v45.1c0,11.38.57,22.43,1.94,30.17ZM634.22,154c-22.35-.29-43.72,4.42-43.72,23.49,0,12.26,8,18,18,18a25.79,25.79,0,0,0,24.79-17.33,23.94,23.94,0,0,0,.88-6.88Z" transform="translate(0 -21.57)"/><path class="cls-4" d="M699.64,41.94h31.43v79.77h.72c4.14-6.63,8.58-12.81,12.71-18.68l45.43-61.09h39L769.14,115.7l63.67,99.65h-37L746.66,136l-15.59,18.52v60.87H699.64Z" transform="translate(0 -21.57)"/><path class="cls-4" d="M883.09,55c0,9.46-6.83,17.08-18.05,17.08-10.5,0-17.39-7.62-17.35-17.08,0-9.65,7.09-17.12,17.73-17.12S883,45.31,883.09,55ZM849.54,215.35V90.1h31.7V215.35Z" transform="translate(0 -21.57)"/><path class="cls-4" d="M951.63,54.23V90.1h30.13v23.59H951.63V169c0,15.33,4.08,23.12,16.19,23.12a47.94,47.94,0,0,0,12.3-1.38l.64,24.1c-4.75,1.78-13.06,3.25-23,3.25-11.64,0-21.33-4-27.21-10.32-6.81-7.19-9.91-18.72-9.91-35.13V113.69H902.72V90.1h17.87V61.73Z" transform="translate(0 -21.57)"/></g></g></g></svg>