<svg xmlns="http://www.w3.org/2000/svg" viewBox="0 0 957.07 200"><defs><style>.cls-1{fill:#fff;}.cls-2{fill:#ff5e99;}.cls-2,.cls-3,.cls-4{stroke:#282b36;stroke-linejoin:bevel;stroke-width:3px;}.cls-3{fill:#ff4276;}.cls-4{fill:#ff86cf;}.cls-5{fill:#282b36;opacity:0.3;}.cls-6{fill:none;}</style></defs><title>logo-light</title><g id="Layer_2" data-name="Layer 2"><g id="Layer_3" data-name="Layer 3"><path class="cls-1" d="M264.61,16.27c12-2.2,29.64-3.73,48-3.73,24.84,0,41.8,4.19,53.47,14,9.55,7.94,14.95,20,14.95,34.83,0,22.33-15.18,37.56-31.55,43.32v.73c12.57,4.76,19.89,16.71,24.19,33.56,5.52,21.7,10.24,41.59,13.7,48.34H354.88c-2.69-5-6.84-19.34-11.69-40.91C338.22,123.78,330,116.45,312,116H296V187.3H264.61ZM296,92.81h18.75c21.48,0,34.71-11.33,34.71-28.56,0-18.87-13.29-27.74-33.77-27.81-10.05,0-16.46.78-19.69,1.61Z"/><path class="cls-1" d="M432.86,133.43c.84,22.7,18.41,32.62,38.68,32.62,14.57,0,25-2.28,34.57-5.8l4.69,21.8C500.07,186.6,485.21,190,467,190c-40.67,0-64.49-25.13-64.49-63.51,0-34.56,21-67.27,61.26-67.27,40.71,0,54,33.47,54,60.91a66.66,66.66,0,0,1-1.12,13.3Zm55.08-22.07c.14-11.6-4.9-30.52-26.12-30.52-19.49,0-27.6,17.7-29,30.52Z"/><path class="cls-1" d="M613.72,187.3l-2.16-14h-.76c-7.6,9.89-20.7,16.79-36.92,16.79-25.41,0-39.48-18.16-39.48-37.26,0-31.6,28.16-47.6,74.29-47.42v-2.07c0-8.23-3.26-21.92-25.43-21.84-12.27,0-25.14,4-33.68,9.35l-6.27-20.56c9.46-5.75,25.68-11.11,45.4-11.11,40.17,0,51.64,25.33,51.64,52.81v45.1c0,11.38.57,22.43,1.94,30.17ZM609.53,126c-22.35-.29-43.72,4.42-43.72,23.49,0,12.26,8.05,18,18.05,18a25.79,25.79,0,0,0,24.79-17.33,23.94,23.94,0,0,0,.88-6.88Z"/><path class="cls-1" d="M675,13.89h31.43V93.66h.72C711.24,87,715.68,80.85,719.81,75l45.43-61.09h39L744.45,87.65l63.67,99.65h-37L722,107.91l-15.59,18.52V187.3H675Z"/><path class="cls-1" d="M858.4,27c0,9.46-6.83,17.08-18,17.08C829.85,44.07,823,36.45,823,27c0-9.65,7.09-17.12,17.73-17.12S858.29,17.26,858.4,27ZM824.85,187.3V62.05h31.7V187.3Z"/><path class="cls-1" d="M926.94,26.18V62.05h30.13V85.64H926.94v55.27c0,15.33,4.08,23.12,16.19,23.12a48.09,48.09,0,0,0,12.31-1.38l.63,24.1C951.32,188.53,943,190,933,190c-11.64,0-21.33-4-27.21-10.32-6.81-7.19-9.91-18.72-9.91-35.13V85.64H878V62.05H895.9V33.68Z"/><polygon class="cls-2" points="16 172.4 58.29 196.81 58.29 147.99 16 123.57 16 172.4"/><polygon class="cls-3" points="58.29 147.99 100.57 123.57 100.57 172.4 58.29 196.81 58.29 147.99"/><polygon class="cls-4" points="58.14 99.46 100.23 123.72 58.18 148.05 16.08 123.79 58.14 99.46"/><polygon class="cls-2" points="99.43 172.4 141.71 196.81 141.71 147.99 99.43 123.57 99.43 172.4"/><polygon class="cls-3" points="141.71 147.99 184 123.57 184 172.4 141.71 196.81 141.71 147.99"/><polygon class="cls-4" points="142.51 99.46 184.61 123.72 142.55 148.05 100.45 123.79 142.51 99.46"/><polygon class="cls-2" points="16 123.83 58.29 148.25 58.29 99.42 16 75.01 16 123.83"/><polygon class="cls-3" points="58.29 99.42 100.57 75.01 100.57 123.83 58.29 148.25 58.29 99.42"/><polygon class="cls-4" points="58.14 50.89 100.23 75.15 58.18 99.48 16.08 75.22 58.14 50.89"/><polygon class="cls-2" points="16 75.27 58.29 99.68 58.29 50.85 16 26.44 16 75.27"/><polygon class="cls-4" points="58.29 50.85 100.57 26.44 100.57 75.27 58.29 99.68 58.29 50.85"/><polygon class="cls-4" points="58.14 2.33 100.23 26.59 58.18 50.91 16.08 26.66 58.14 2.33"/><polygon class="cls-4" points="99.43 75.25 141.71 99.66 141.71 50.83 99.43 26.42 99.43 75.25"/><polygon class="cls-3" points="141.71 50.83 184 26.42 184 75.25 141.71 99.66 141.71 50.83"/><polygon class="cls-4" points="142.29 2.31 184.39 26.56 142.33 50.89 100.23 26.64 142.29 2.31"/><polygon class="cls-2" points="58.29 99.58 100.57 124 100.57 75.17 58.29 50.76 58.29 99.58"/><polygon class="cls-3" points="99.43 75.17 141.71 50.76 141.71 99.58 99.43 124 99.43 75.17"/><polygon class="cls-4" points="100 26.64 142.1 50.9 100.04 75.23 57.94 50.97 100 26.64"/><polygon class="cls-5" points="58.14 99.46 99.67 124.1 142.51 99.46 163.37 111.43 121.3 136.33 100.16 172.95 58.14 99.46"/><rect class="cls-6" width="200" height="200"/></g></g></svg>