<svg xmlns="http://www.w3.org/2000/svg" viewBox="0 0 225 216.47"><defs><style>.cls-1{isolation:isolate;}.cls-2{fill:#ff86cf;stroke:#fff;stroke-linejoin:bevel;stroke-width:3px;}.cls-3{opacity:0.2;}.cls-3,.cls-5{mix-blend-mode:color-burn;}.cls-4{fill:#282b36;}.cls-5,.cls-6{opacity:0.4;}</style></defs><title>symbol-light</title><g class="cls-1"><g id="Layer_2" data-name="Layer 2"><g id="Layer_3" data-name="Layer 3"><polygon class="cls-2" points="112.86 129.62 149.92 150.97 112.9 172.39 75.84 151.04 112.86 129.62"/><polygon class="cls-2" points="112.5 129.61 149.5 150.97 149.5 108.25 112.5 86.88 112.5 129.61"/><polygon class="cls-2" points="75.5 108.25 112.5 86.88 112.5 129.61 75.5 150.97 75.5 108.25"/><polygon class="cls-2" points="75.5 151 112.5 172.36 112.5 129.63 75.5 108.27 75.5 151"/><polygon class="cls-2" points="112.5 129.63 149.5 108.27 149.5 151 112.5 172.36 112.5 129.63"/><polygon class="cls-2" points="112.86 86.85 149.92 108.2 112.9 129.62 75.84 108.27 112.86 86.85"/><polygon class="cls-2" points="149.91 151.01 186.97 172.36 149.94 193.78 112.88 172.43 149.91 151.01"/><polygon class="cls-2" points="149.5 151 186.5 172.36 186.5 129.63 149.5 108.27 149.5 151"/><polygon class="cls-2" points="112.5 129.63 149.5 108.27 149.5 151 112.5 172.36 112.5 129.63"/><polygon class="cls-2" points="112.5 172.38 149.5 193.74 149.5 151.02 112.5 129.66 112.5 172.38"/><polygon class="cls-2" points="149.5 151.02 186.5 129.66 186.5 172.38 149.5 193.74 149.5 151.02"/><polygon class="cls-2" points="149.91 108.23 186.97 129.59 149.94 151.01 112.88 129.65 149.91 108.23"/><polygon class="cls-2" points="186.95 172.39 224.01 193.75 186.99 215.17 149.92 193.81 186.95 172.39"/><polygon class="cls-2" points="186.5 172.38 223.5 193.74 223.5 151.02 186.5 129.66 186.5 172.38"/><polygon class="cls-2" points="149.5 151.02 186.5 129.66 186.5 172.38 149.5 193.74 149.5 151.02"/><polygon class="cls-2" points="149.5 193.77 186.5 215.13 186.5 172.41 149.5 151.04 149.5 193.77"/><polygon class="cls-2" points="186.5 172.41 223.5 151.04 223.5 193.77 186.5 215.13 186.5 172.41"/><polygon class="cls-2" points="186.95 129.62 224.01 150.97 186.99 172.39 149.92 151.04 186.95 129.62"/><polygon class="cls-2" points="38.78 172.39 75.84 193.75 38.81 215.17 1.75 193.81 38.78 172.39"/><polygon class="cls-2" points="38.5 172.38 75.5 193.74 75.5 151.02 38.5 129.66 38.5 172.38"/><polygon class="cls-2" points="1.5 151.02 38.5 129.66 38.5 172.38 1.5 193.74 1.5 151.02"/><polygon class="cls-2" points="1.5 193.77 38.5 215.13 38.5 172.41 1.5 151.04 1.5 193.77"/><polygon class="cls-2" points="38.5 172.41 75.5 151.04 75.5 193.77 38.5 215.13 38.5 172.41"/><polygon class="cls-2" points="38.78 129.62 75.84 150.97 38.81 172.39 1.75 151.04 38.78 129.62"/><polygon class="cls-2" points="186.95 44.07 224.01 65.43 186.99 86.85 149.92 65.49 186.95 44.07"/><polygon class="cls-2" points="186.5 44.06 223.5 65.42 223.5 22.7 186.5 1.34 186.5 44.06"/><polygon class="cls-2" points="149.5 22.7 186.5 1.34 186.5 44.06 149.5 65.42 149.5 22.7"/><polygon class="cls-2" points="149.5 65.45 186.5 86.81 186.5 44.09 149.5 22.72 149.5 65.45"/><polygon class="cls-2" points="186.5 44.09 223.5 22.72 223.5 65.45 186.5 86.81 186.5 44.09"/><polygon class="cls-2" points="186.95 1.3 224.01 22.65 186.99 44.07 149.92 22.72 186.95 1.3"/><polygon class="cls-2" points="38.78 129.62 75.84 150.97 38.81 172.39 1.75 151.04 38.78 129.62"/><polygon class="cls-2" points="38.5 129.61 75.5 150.97 75.5 108.25 38.5 86.88 38.5 129.61"/><polygon class="cls-2" points="1.5 108.25 38.5 86.88 38.5 129.61 1.5 150.97 1.5 108.25"/><polygon class="cls-2" points="1.5 151 38.5 172.36 38.5 129.63 1.5 108.27 1.5 151"/><polygon class="cls-2" points="38.5 129.63 75.5 108.27 75.5 151 38.5 172.36 38.5 129.63"/><polygon class="cls-2" points="38.78 86.85 75.84 108.2 38.81 129.62 1.75 108.27 38.78 86.85"/><polygon class="cls-2" points="38.78 86.85 75.84 108.2 38.81 129.62 1.75 108.27 38.78 86.85"/><polygon class="cls-2" points="38.5 86.83 75.5 108.2 75.5 65.47 38.5 44.11 38.5 86.83"/><polygon class="cls-2" points="1.5 65.47 38.5 44.11 38.5 86.83 1.5 108.2 1.5 65.47"/><polygon class="cls-2" points="1.5 108.22 38.5 129.58 38.5 86.86 1.5 65.5 1.5 108.22"/><polygon class="cls-2" points="38.5 86.86 75.5 65.5 75.5 108.22 38.5 129.58 38.5 86.86"/><polygon class="cls-2" points="38.78 44.07 75.84 65.43 38.81 86.85 1.75 65.49 38.78 44.07"/><polygon class="cls-2" points="38.78 44.07 75.84 65.43 38.81 86.85 1.75 65.49 38.78 44.07"/><polygon class="cls-2" points="38.5 44.06 75.5 65.42 75.5 22.7 38.5 1.34 38.5 44.06"/><polygon class="cls-2" points="1.5 22.7 38.5 1.34 38.5 44.06 1.5 65.42 1.5 22.7"/><polygon class="cls-2" points="1.5 65.45 38.5 86.81 38.5 44.09 1.5 22.72 1.5 65.45"/><polygon class="cls-2" points="38.5 44.09 75.5 22.72 75.5 65.45 38.5 86.81 38.5 44.09"/><polygon class="cls-2" points="38.78 1.3 75.84 22.65 38.81 44.07 1.75 22.72 38.78 1.3"/><polygon class="cls-2" points="75.82 65.46 112.88 86.81 75.86 108.23 38.79 86.88 75.82 65.46"/><polygon class="cls-2" points="75.5 65.45 112.5 86.81 112.5 44.09 75.5 22.72 75.5 65.45"/><polygon class="cls-2" points="38.5 44.09 75.5 22.72 75.5 65.45 38.5 86.81 38.5 44.09"/><polygon class="cls-2" points="38.5 86.83 75.5 108.2 75.5 65.47 38.5 44.11 38.5 86.83"/><polygon class="cls-2" points="75.5 65.47 112.5 44.11 112.5 86.83 75.5 108.2 75.5 65.47"/><polygon class="cls-2" points="75.82 22.69 112.88 44.04 75.86 65.46 38.79 44.11 75.82 22.69"/><polygon class="cls-2" points="149.91 65.46 186.97 86.81 149.94 108.23 112.88 86.88 149.91 65.46"/><polygon class="cls-2" points="149.5 65.45 186.5 86.81 186.5 44.09 149.5 22.72 149.5 65.45"/><polygon class="cls-2" points="112.5 44.09 149.5 22.72 149.5 65.45 112.5 86.81 112.5 44.09"/><polygon class="cls-2" points="112.5 86.83 149.5 108.2 149.5 65.47 112.5 44.11 112.5 86.83"/><polygon class="cls-2" points="149.5 65.47 186.5 44.11 186.5 86.83 149.5 108.2 149.5 65.47"/><polygon class="cls-2" points="149.91 22.69 186.97 44.04 149.94 65.46 112.88 44.11 149.91 22.69"/><polygon class="cls-2" points="112.86 86.85 149.92 108.2 112.9 129.62 75.84 108.27 112.86 86.85"/><polygon class="cls-2" points="112.5 86.83 149.5 108.2 149.5 65.47 112.5 44.11 112.5 86.83"/><polygon class="cls-2" points="75.5 65.47 112.5 44.11 112.5 86.83 75.5 108.2 75.5 65.47"/><polygon class="cls-2" points="75.5 108.22 112.5 129.58 112.5 86.86 75.5 65.5 75.5 108.22"/><polygon class="cls-2" points="112.5 86.86 149.5 65.5 149.5 108.22 112.5 129.58 112.5 86.86"/><polygon class="cls-2" points="112.86 44.07 149.92 65.43 112.9 86.85 75.84 65.49 112.86 44.07"/><g class="cls-3"><polygon class="cls-4" points="224.25 22.59 113.01 86.86 112.99 129.68 224.25 65.45 224.25 22.59"/><polygon class="cls-4" points="224.25 151 187.19 172.44 187.17 215.26 224.25 193.85 224.25 151"/><polygon class="cls-4" points="75.92 193.85 38.83 215.26 38.83 86.79 75.92 108.2 75.92 193.85"/></g><g class="cls-5"><polygon class="cls-4" points="187.19 172.44 75.92 108.2 75.92 151.06 187.17 215.26 187.19 172.44"/><polygon class="cls-4" points="113.02 86.79 112.98 129.62 38.83 86.79 38.83 215.26 1.75 193.85 1.75 22.59 113.02 86.79"/></g><g class="cls-6"><polygon class="cls-4" points="39 86.9 112.98 129.63 150 108.27 187 129.63 150 150.96 131.5 183.03 76 151.02 76 131.7 39 129.63 39 86.9"/></g></g></g></g></svg>