<svg xmlns="http://www.w3.org/2000/svg" viewBox="0 0 225.47 216.65"><defs><style>.cls-1{fill:#282b36;stroke:#fff;stroke-linejoin:bevel;stroke-width:3.21px;}</style></defs><title>symbol-black</title><g id="Layer_2" data-name="Layer 2"><g id="Layer_3" data-name="Layer 3"><polygon class="cls-1" points="112.71 129.71 149.78 151.06 112.75 172.48 75.69 151.13 112.71 129.71"/><polygon class="cls-1" points="112.73 129.71 149.78 151.1 149.78 108.32 112.73 86.94 112.73 129.71"/><polygon class="cls-1" points="75.69 108.32 112.73 86.94 112.73 129.71 75.69 151.1 75.69 108.32"/><polygon class="cls-1" points="75.69 151.1 112.73 172.48 112.73 129.71 75.69 108.32 75.69 151.1"/><polygon class="cls-1" points="112.73 129.71 149.78 108.32 149.78 151.1 112.73 172.48 112.73 129.71"/><polygon class="cls-1" points="112.71 86.94 149.78 108.29 112.75 129.71 75.69 108.36 112.71 86.94"/><polygon class="cls-1" points="149.76 151.1 186.82 172.45 149.79 193.87 112.73 172.52 149.76 151.1"/><polygon class="cls-1" points="149.78 151.1 186.82 172.48 186.82 129.71 149.78 108.32 149.78 151.1"/><polygon class="cls-1" points="112.73 129.71 149.78 108.32 149.78 151.1 112.73 172.48 112.73 129.71"/><polygon class="cls-1" points="112.73 172.48 149.78 193.87 149.78 151.1 112.73 129.71 112.73 172.48"/><polygon class="cls-1" points="149.78 151.1 186.82 129.71 186.82 172.48 149.78 193.87 149.78 151.1"/><polygon class="cls-1" points="149.76 108.32 186.82 129.68 149.79 151.1 112.73 129.74 149.76 108.32"/><polygon class="cls-1" points="186.8 172.48 223.86 193.84 186.84 215.26 149.78 193.9 186.8 172.48"/><polygon class="cls-1" points="186.82 172.48 223.86 193.87 223.86 151.1 186.82 129.71 186.82 172.48"/><polygon class="cls-1" points="149.78 151.1 186.82 129.71 186.82 172.48 149.78 193.87 149.78 151.1"/><polygon class="cls-1" points="149.78 193.87 186.82 215.26 186.82 172.48 149.78 151.1 149.78 193.87"/><polygon class="cls-1" points="186.82 172.48 223.86 151.1 223.86 193.87 186.82 215.26 186.82 172.48"/><polygon class="cls-1" points="186.8 129.71 223.86 151.06 186.84 172.48 149.78 151.13 186.8 129.71"/><polygon class="cls-1" points="38.63 172.48 75.69 193.84 38.67 215.26 1.6 193.9 38.63 172.48"/><polygon class="cls-1" points="38.65 172.48 75.69 193.87 75.69 151.1 38.65 129.71 38.65 172.48"/><polygon class="cls-1" points="1.6 151.1 38.65 129.71 38.65 172.48 1.6 193.87 1.6 151.1"/><polygon class="cls-1" points="1.6 193.87 38.65 215.26 38.65 172.48 1.6 151.1 1.6 193.87"/><polygon class="cls-1" points="38.65 172.48 75.69 151.1 75.69 193.87 38.65 215.26 38.65 172.48"/><polygon class="cls-1" points="38.63 129.71 75.69 151.06 38.67 172.48 1.6 151.13 38.63 129.71"/><polygon class="cls-1" points="186.8 44.16 223.86 65.52 186.84 86.94 149.78 65.58 186.8 44.16"/><polygon class="cls-1" points="186.82 44.16 223.86 65.55 223.86 22.78 186.82 1.39 186.82 44.16"/><polygon class="cls-1" points="149.78 22.78 186.82 1.39 186.82 44.16 149.78 65.55 149.78 22.78"/><polygon class="cls-1" points="149.78 65.55 186.82 86.94 186.82 44.16 149.78 22.78 149.78 65.55"/><polygon class="cls-1" points="186.82 44.16 223.86 22.78 223.86 65.55 186.82 86.94 186.82 44.16"/><polygon class="cls-1" points="186.8 1.39 223.86 22.74 186.84 44.16 149.78 22.81 186.8 1.39"/><polygon class="cls-1" points="38.63 129.71 75.69 151.06 38.67 172.48 1.6 151.13 38.63 129.71"/><polygon class="cls-1" points="38.65 129.71 75.69 151.1 75.69 108.32 38.65 86.94 38.65 129.71"/><polygon class="cls-1" points="1.6 108.32 38.65 86.94 38.65 129.71 1.6 151.1 1.6 108.32"/><polygon class="cls-1" points="1.6 151.1 38.65 172.48 38.65 129.71 1.6 108.32 1.6 151.1"/><polygon class="cls-1" points="38.65 129.71 75.69 108.32 75.69 151.1 38.65 172.48 38.65 129.71"/><polygon class="cls-1" points="38.63 86.94 75.69 108.29 38.67 129.71 1.6 108.36 38.63 86.94"/><polygon class="cls-1" points="38.63 86.94 75.69 108.29 38.67 129.71 1.6 108.36 38.63 86.94"/><polygon class="cls-1" points="38.65 86.94 75.69 108.32 75.69 65.55 38.65 44.16 38.65 86.94"/><polygon class="cls-1" points="1.6 65.55 38.65 44.16 38.65 86.94 1.6 108.32 1.6 65.55"/><polygon class="cls-1" points="1.6 108.32 38.65 129.71 38.65 86.94 1.6 65.55 1.6 108.32"/><polygon class="cls-1" points="38.65 86.94 75.69 65.55 75.69 108.32 38.65 129.71 38.65 86.94"/><polygon class="cls-1" points="38.63 44.16 75.69 65.52 38.67 86.94 1.6 65.58 38.63 44.16"/><polygon class="cls-1" points="38.63 44.16 75.69 65.52 38.67 86.94 1.6 65.58 38.63 44.16"/><polygon class="cls-1" points="38.65 44.16 75.69 65.55 75.69 22.78 38.65 1.39 38.65 44.16"/><polygon class="cls-1" points="1.6 22.78 38.65 1.39 38.65 44.16 1.6 65.55 1.6 22.78"/><polygon class="cls-1" points="1.6 65.55 38.65 86.94 38.65 44.16 1.6 22.78 1.6 65.55"/><polygon class="cls-1" points="38.65 44.16 75.69 22.78 75.69 65.55 38.65 86.94 38.65 44.16"/><polygon class="cls-1" points="38.63 1.39 75.69 22.74 38.67 44.16 1.6 22.81 38.63 1.39"/><polygon class="cls-1" points="75.67 65.55 112.73 86.91 75.71 108.32 38.65 86.97 75.67 65.55"/><polygon class="cls-1" points="75.69 65.55 112.73 86.94 112.73 44.16 75.69 22.78 75.69 65.55"/><polygon class="cls-1" points="38.65 44.16 75.69 22.78 75.69 65.55 38.65 86.94 38.65 44.16"/><polygon class="cls-1" points="38.65 86.94 75.69 108.32 75.69 65.55 38.65 44.16 38.65 86.94"/><polygon class="cls-1" points="75.69 65.55 112.73 44.16 112.73 86.94 75.69 108.32 75.69 65.55"/><polygon class="cls-1" points="75.67 22.78 112.73 44.13 75.71 65.55 38.65 44.2 75.67 22.78"/><polygon class="cls-1" points="149.76 65.55 186.82 86.91 149.79 108.32 112.73 86.97 149.76 65.55"/><polygon class="cls-1" points="149.78 65.55 186.82 86.94 186.82 44.16 149.78 22.78 149.78 65.55"/><polygon class="cls-1" points="112.73 44.16 149.78 22.78 149.78 65.55 112.73 86.94 112.73 44.16"/><polygon class="cls-1" points="112.73 86.94 149.78 108.32 149.78 65.55 112.73 44.16 112.73 86.94"/><polygon class="cls-1" points="149.78 65.55 186.82 44.16 186.82 86.94 149.78 108.32 149.78 65.55"/><polygon class="cls-1" points="149.76 22.78 186.82 44.13 149.79 65.55 112.73 44.2 149.76 22.78"/><polygon class="cls-1" points="112.71 86.94 149.78 108.29 112.75 129.71 75.69 108.36 112.71 86.94"/><polygon class="cls-1" points="112.73 86.94 149.78 108.32 149.78 65.55 112.73 44.16 112.73 86.94"/><polygon class="cls-1" points="75.69 65.55 112.73 44.16 112.73 86.94 75.69 108.32 75.69 65.55"/><polygon class="cls-1" points="75.69 108.32 112.73 129.71 112.73 86.94 75.69 65.55 75.69 108.32"/><polygon class="cls-1" points="112.73 86.94 149.78 65.55 149.78 108.32 112.73 129.71 112.73 86.94"/><polygon class="cls-1" points="112.71 44.16 149.78 65.52 112.75 86.94 75.69 65.58 112.71 44.16"/></g></g></svg>