<svg xmlns="http://www.w3.org/2000/svg" viewBox="0 0 351.41 471.9"><defs><style>.cls-1{fill:#fff;}.cls-1,.cls-2{stroke:#fff;stroke-linejoin:bevel;stroke-width:5px;}</style></defs><title>symbol-black</title><g id="Layer_2" data-name="Layer 2"><g id="Layer_3" data-name="Layer 3"><polygon class="cls-1" points="348.91 102.12 348.91 368.78 175.71 469.74 2.5 368.83 2.5 102.22 175.68 2.17 348.91 102.12"/><polygon class="cls-2" points="175.68 268.83 233.44 302.12 175.73 335.5 117.97 302.22 175.68 268.83"/><polygon class="cls-2" points="175.71 268.83 233.44 302.17 233.44 235.5 175.71 202.17 175.71 268.83"/><polygon class="cls-2" points="117.97 235.5 175.71 202.17 175.71 268.83 117.97 302.17 117.97 235.5"/><polygon class="cls-2" points="117.97 302.17 175.71 335.5 175.71 268.83 117.97 235.5 117.97 302.17"/><polygon class="cls-2" points="175.71 268.83 233.44 235.5 233.44 302.17 175.71 335.5 175.71 268.83"/><polygon class="cls-2" points="175.68 202.17 233.44 235.45 175.73 268.83 117.97 235.55 175.68 202.17"/><polygon class="cls-2" points="233.41 302.17 291.18 335.45 233.47 368.83 175.71 335.55 233.41 302.17"/><polygon class="cls-2" points="233.44 302.17 291.18 335.5 291.18 268.83 233.44 235.5 233.44 302.17"/><polygon class="cls-2" points="175.71 268.83 233.44 235.5 233.44 302.17 175.71 335.5 175.71 268.83"/><polygon class="cls-2" points="175.71 335.5 233.44 368.83 233.44 302.17 175.71 268.83 175.71 335.5"/><polygon class="cls-2" points="233.44 302.17 291.18 268.83 291.18 335.5 233.44 368.83 233.44 302.17"/><polygon class="cls-2" points="233.41 235.5 291.18 268.78 233.47 302.17 175.71 268.88 233.41 235.5"/><polygon class="cls-2" points="291.15 335.5 348.91 368.78 291.2 402.17 233.44 368.88 291.15 335.5"/><polygon class="cls-2" points="291.18 335.5 348.91 368.83 348.91 302.17 291.18 268.83 291.18 335.5"/><polygon class="cls-2" points="233.44 302.17 291.18 268.83 291.18 335.5 233.44 368.83 233.44 302.17"/><polygon class="cls-2" points="233.44 368.83 291.18 402.17 291.18 335.5 233.44 302.17 233.44 368.83"/><polygon class="cls-2" points="291.18 335.5 348.91 302.17 348.91 368.83 291.18 402.17 291.18 335.5"/><polygon class="cls-2" points="291.15 268.83 348.91 302.12 291.2 335.5 233.44 302.22 291.15 268.83"/><polygon class="cls-2" points="175.68 68.83 233.44 102.12 175.73 135.5 117.97 102.22 175.68 68.83"/><polygon class="cls-2" points="175.71 68.83 233.44 102.17 233.44 35.5 175.71 2.17 175.71 68.83"/><polygon class="cls-2" points="117.97 35.5 175.71 2.17 175.71 68.83 117.97 102.17 117.97 35.5"/><polygon class="cls-2" points="117.97 102.17 175.71 135.5 175.71 68.83 117.97 35.5 117.97 102.17"/><polygon class="cls-2" points="175.71 68.83 233.44 35.5 233.44 102.17 175.71 135.5 175.71 68.83"/><polygon class="cls-2" points="175.68 2.17 233.44 35.45 175.73 68.83 117.97 35.55 175.68 2.17"/><polygon class="cls-2" points="117.94 102.17 175.71 135.45 118 168.83 60.23 135.55 117.94 102.17"/><polygon class="cls-2" points="117.97 102.17 175.71 135.5 175.71 68.83 117.97 35.5 117.97 102.17"/><polygon class="cls-2" points="60.23 68.83 117.97 35.5 117.97 102.17 60.23 135.5 60.23 68.83"/><polygon class="cls-2" points="60.23 135.5 117.97 168.83 117.97 102.17 60.23 68.83 60.23 135.5"/><polygon class="cls-1" points="117.97 102.17 175.71 68.83 175.71 135.5 117.97 168.83 117.97 102.17"/><polygon class="cls-2" points="117.94 35.5 175.71 68.78 118 102.17 60.23 68.88 117.94 35.5"/><polygon class="cls-2" points="233.41 102.17 291.18 135.45 233.47 168.83 175.71 135.55 233.41 102.17"/><polygon class="cls-2" points="233.44 102.17 291.18 135.5 291.18 68.83 233.44 35.5 233.44 102.17"/><polygon class="cls-2" points="175.71 68.83 233.44 35.5 233.44 102.17 175.71 135.5 175.71 68.83"/><polygon class="cls-1" points="175.71 135.5 233.44 168.83 233.44 102.17 175.71 68.83 175.71 135.5"/><polygon class="cls-2" points="233.44 102.17 291.18 68.83 291.18 135.5 233.44 168.83 233.44 102.17"/><polygon class="cls-2" points="233.41 35.5 291.18 68.78 233.47 102.17 175.71 68.88 233.41 35.5"/><polygon class="cls-2" points="60.21 335.5 117.97 368.78 60.26 402.17 2.5 368.88 60.21 335.5"/><polygon class="cls-2" points="60.23 335.5 117.97 368.83 117.97 302.17 60.23 268.83 60.23 335.5"/><polygon class="cls-2" points="2.5 302.17 60.23 268.83 60.23 335.5 2.5 368.83 2.5 302.17"/><polygon class="cls-2" points="2.5 368.83 60.23 402.17 60.23 335.5 2.5 302.17 2.5 368.83"/><polygon class="cls-2" points="60.23 335.5 117.97 302.17 117.97 368.83 60.23 402.17 60.23 335.5"/><polygon class="cls-2" points="60.21 268.83 117.97 302.12 60.26 335.5 2.5 302.22 60.21 268.83"/><polygon class="cls-2" points="291.15 135.5 348.91 168.78 291.2 202.17 233.44 168.88 291.15 135.5"/><polygon class="cls-2" points="291.18 135.5 348.91 168.83 348.91 102.17 291.18 68.83 291.18 135.5"/><polygon class="cls-2" points="233.44 102.17 291.18 68.83 291.18 135.5 233.44 168.83 233.44 102.17"/><polygon class="cls-2" points="233.44 168.83 291.18 202.17 291.18 135.5 233.44 102.17 233.44 168.83"/><polygon class="cls-2" points="291.18 135.5 348.91 102.17 348.91 168.83 291.18 202.17 291.18 135.5"/><polygon class="cls-2" points="291.15 68.83 348.91 102.12 291.2 135.5 233.44 102.22 291.15 68.83"/><polygon class="cls-2" points="60.21 268.83 117.97 302.12 60.26 335.5 2.5 302.22 60.21 268.83"/><polygon class="cls-2" points="60.23 268.83 117.97 302.17 117.97 235.5 60.23 202.17 60.23 268.83"/><polygon class="cls-2" points="2.5 235.5 60.23 202.17 60.23 268.83 2.5 302.17 2.5 235.5"/><polygon class="cls-2" points="2.5 302.17 60.23 335.5 60.23 268.83 2.5 235.5 2.5 302.17"/><polygon class="cls-2" points="60.23 268.83 117.97 235.5 117.97 302.17 60.23 335.5 60.23 268.83"/><polygon class="cls-2" points="60.21 202.17 117.97 235.45 60.26 268.83 2.5 235.55 60.21 202.17"/><polygon class="cls-2" points="60.21 202.17 117.97 235.45 60.26 268.83 2.5 235.55 60.21 202.17"/><polygon class="cls-2" points="60.23 202.17 117.97 235.5 117.97 168.83 60.23 135.5 60.23 202.17"/><polygon class="cls-2" points="2.5 168.83 60.23 135.5 60.23 202.17 2.5 235.5 2.5 168.83"/><polygon class="cls-2" points="2.5 235.5 60.23 268.83 60.23 202.17 2.5 168.83 2.5 235.5"/><polygon class="cls-2" points="60.23 202.17 117.97 168.83 117.97 235.5 60.23 268.83 60.23 202.17"/><polygon class="cls-2" points="60.21 135.5 117.97 168.78 60.26 202.17 2.5 168.88 60.21 135.5"/><polygon class="cls-2" points="60.21 135.5 117.97 168.78 60.26 202.17 2.5 168.88 60.21 135.5"/><polygon class="cls-2" points="60.23 135.5 117.97 168.83 117.97 102.17 60.23 68.83 60.23 135.5"/><polygon class="cls-2" points="2.5 102.17 60.23 68.83 60.23 135.5 2.5 168.83 2.5 102.17"/><polygon class="cls-2" points="2.5 168.83 60.23 202.17 60.23 135.5 2.5 102.17 2.5 168.83"/><polygon class="cls-2" points="60.23 135.5 117.97 102.17 117.97 168.83 60.23 202.17 60.23 135.5"/><polygon class="cls-2" points="60.21 68.83 117.97 102.12 60.26 135.5 2.5 102.22 60.21 68.83"/><polygon class="cls-2" points="117.94 168.83 175.71 202.12 118 235.5 60.23 202.22 117.94 168.83"/><polygon class="cls-2" points="117.97 168.83 175.71 202.17 175.71 135.5 117.97 102.17 117.97 168.83"/><polygon class="cls-2" points="60.23 135.5 117.97 102.17 117.97 168.83 60.23 202.17 60.23 135.5"/><polygon class="cls-2" points="60.23 202.17 117.97 235.5 117.97 168.83 60.23 135.5 60.23 202.17"/><polygon class="cls-2" points="117.97 168.83 175.71 135.5 175.71 202.17 117.97 235.5 117.97 168.83"/><polygon class="cls-2" points="117.94 102.17 175.71 135.45 118 168.83 60.23 135.55 117.94 102.17"/><polygon class="cls-2" points="233.41 168.83 291.18 202.12 233.47 235.5 175.71 202.22 233.41 168.83"/><polygon class="cls-2" points="233.44 168.83 291.18 202.17 291.18 135.5 233.44 102.17 233.44 168.83"/><polygon class="cls-2" points="175.71 135.5 233.44 102.17 233.44 168.83 175.71 202.17 175.71 135.5"/><polygon class="cls-2" points="175.71 202.17 233.44 235.5 233.44 168.83 175.71 135.5 175.71 202.17"/><polygon class="cls-2" points="233.44 168.83 291.18 135.5 291.18 202.17 233.44 235.5 233.44 168.83"/><polygon class="cls-2" points="233.41 102.17 291.18 135.45 233.47 168.83 175.71 135.55 233.41 102.17"/><polygon class="cls-2" points="175.68 202.17 233.44 235.45 175.73 268.83 117.97 235.55 175.68 202.17"/><polygon class="cls-2" points="175.71 202.17 233.44 235.5 233.44 168.83 175.71 135.5 175.71 202.17"/><polygon class="cls-2" points="117.97 168.83 175.71 135.5 175.71 202.17 117.97 235.5 117.97 168.83"/><polygon class="cls-2" points="117.97 235.5 175.71 268.83 175.71 202.17 117.97 168.83 117.97 235.5"/><polygon class="cls-2" points="175.71 202.17 233.44 168.83 233.44 235.5 175.71 268.83 175.71 202.17"/><polygon class="cls-2" points="175.68 135.5 233.44 168.78 175.73 202.17 117.97 168.88 175.68 135.5"/></g></g></svg>