<svg xmlns="http://www.w3.org/2000/svg" viewBox="0 0 692.46 180.26"><defs><style>.cls-1{fill:#282b36;}</style></defs><title>typo-dark</title><g id="Layer_2" data-name="Layer 2"><g id="Layer_3" data-name="Layer 3"><path class="cls-1" d="M18.15,44.32c12-2.2,29.64-3.73,48-3.73,24.85,0,41.81,4.19,53.48,14,9.54,7.94,14.94,19.95,14.94,34.83,0,22.33-15.18,37.56-31.54,43.32v.73c12.56,4.76,19.89,16.71,24.18,33.56,5.52,21.7,10.25,41.59,13.7,48.34H108.42c-2.69-5-6.83-19.34-11.68-40.91-5-22.61-13.2-29.94-31.2-30.36h-16v71.27H18.15Zm31.44,76.54H68.33c21.49,0,34.72-11.33,34.72-28.56,0-18.87-13.3-27.74-33.78-27.81-10,0-16.45.78-19.68,1.61Z" transform="translate(-18.15 -37.92)"/><path class="cls-1" d="M186.41,161.48c.84,22.7,18.4,32.62,38.68,32.62,14.57,0,25-2.28,34.56-5.8l4.69,21.8c-10.72,4.55-25.59,8-43.77,8-40.67,0-64.48-25.13-64.48-63.51,0-34.56,21-67.27,61.25-67.27,40.71,0,54,33.47,54,60.91a66.66,66.66,0,0,1-1.12,13.3Zm55.08-22.07c.14-11.6-4.91-30.52-26.12-30.52-19.5,0-27.61,17.7-29,30.52Z" transform="translate(-18.15 -37.92)"/><path class="cls-1" d="M367.27,215.35l-2.17-14h-.76c-7.59,9.89-20.7,16.79-36.91,16.79-25.42,0-39.49-18.16-39.49-37.26,0-31.6,28.16-47.6,74.29-47.42v-2.07c0-8.23-3.26-21.92-25.43-21.84-12.27,0-25.14,4-33.67,9.35l-6.28-20.56c9.46-5.75,25.68-11.11,45.4-11.11,40.17,0,51.64,25.33,51.64,52.81v45.1c0,11.38.57,22.43,1.95,30.17ZM363.07,154c-22.34-.29-43.72,4.42-43.72,23.49,0,12.26,8,18,18.06,18a25.78,25.78,0,0,0,24.78-17.33,23.94,23.94,0,0,0,.88-6.88Z" transform="translate(-18.15 -37.92)"/><path class="cls-1" d="M428.49,41.94h31.44v79.77h.71c4.14-6.63,8.58-12.81,12.71-18.68l45.43-61.09h39L498,115.7l63.68,99.65h-37L475.51,136l-15.58,18.52v60.87H428.49Z" transform="translate(-18.15 -37.92)"/><path class="cls-1" d="M612,55c0,9.46-6.84,17.08-18.05,17.08-10.51,0-17.39-7.62-17.36-17.08,0-9.65,7.09-17.12,17.73-17.12S611.84,45.31,612,55ZM578.4,215.35V90.1h31.69V215.35Z" transform="translate(-18.15 -37.92)"/><path class="cls-1" d="M680.48,54.23V90.1h30.13v23.59H680.48V169c0,15.33,4.08,23.12,16.2,23.12A48,48,0,0,0,709,190.7l.64,24.1c-4.76,1.78-13.07,3.25-23,3.25-11.64,0-21.34-4-27.22-10.32-6.81-7.19-9.91-18.72-9.91-35.13V113.69H631.57V90.1h17.87V61.73Z" transform="translate(-18.15 -37.92)"/></g></g></svg>