<svg xmlns="http://www.w3.org/2000/svg" viewBox="0 0 692.46 180.25"><defs><style>.cls-1{fill:#fff;}</style></defs><title>typo-light</title><g id="Layer_2" data-name="Layer 2"><g id="Layer_3" data-name="Layer 3"><path class="cls-1" d="M0,6.4C12,4.2,29.64,2.67,48,2.67c24.85,0,41.81,4.19,53.48,14,9.54,7.93,14.94,20,14.94,34.82,0,22.34-15.18,37.57-31.54,43.33v.73c12.56,4.76,19.89,16.71,24.18,33.56,5.52,21.7,10.25,41.59,13.7,48.33H90.27c-2.69-5-6.83-19.33-11.68-40.91-5-22.6-13.2-29.93-31.2-30.35H31.44v71.26H0ZM31.44,82.93H50.18c21.49,0,34.72-11.32,34.72-28.56,0-18.87-13.3-27.73-33.78-27.8-10,0-16.45.78-19.68,1.61Z"/><path class="cls-1" d="M168.26,123.56c.84,22.7,18.4,32.62,38.68,32.62,14.57,0,25-2.28,34.56-5.8l4.69,21.8c-10.72,4.55-25.59,7.95-43.77,7.95-40.67,0-64.48-25.13-64.48-63.51,0-34.57,21-67.28,61.25-67.28,40.71,0,54,33.48,54,60.92a65.9,65.9,0,0,1-1.12,13.3Zm55.08-22.07c.14-11.6-4.91-30.53-26.12-30.53-19.5,0-27.61,17.71-29,30.53Z"/><path class="cls-1" d="M349.12,177.42,347,163.47h-.76c-7.59,9.89-20.7,16.78-36.91,16.78-25.42,0-39.49-18.15-39.49-37.25,0-31.6,28.16-47.61,74.29-47.42V93.51c0-8.23-3.26-21.92-25.43-21.84-12.27,0-25.14,4-33.67,9.34L278.7,60.46c9.46-5.75,25.68-11.12,45.4-11.12,40.17,0,51.64,25.33,51.64,52.81v45.1c0,11.39.57,22.44,1.95,30.17Zm-4.2-61.34c-22.34-.29-43.72,4.42-43.72,23.49,0,12.26,8.05,18,18.06,18A25.78,25.78,0,0,0,344,140.28a24,24,0,0,0,.88-6.89Z"/><path class="cls-1" d="M410.34,4h31.44V83.79h.71c4.14-6.63,8.58-12.81,12.71-18.69L500.63,4h39L479.84,77.78l63.68,99.64h-37L457.36,98l-15.58,18.53v60.86H410.34Z"/><path class="cls-1" d="M593.8,17.12c0,9.46-6.84,17.08-18,17.08-10.51,0-17.39-7.62-17.36-17.08C558.36,7.47,565.48,0,576.12,0S593.69,7.39,593.8,17.12Zm-33.55,160.3V52.17h31.69V177.42Z"/><path class="cls-1" d="M662.33,16.3V52.17h30.13v23.6H662.33V131c0,15.33,4.08,23.12,16.2,23.12a48,48,0,0,0,12.3-1.38l.64,24.1c-4.76,1.78-13.07,3.25-23.05,3.25-11.64,0-21.34-4-27.22-10.32-6.8-7.2-9.91-18.72-9.91-35.14V75.77H613.42V52.17h17.87V23.8Z"/></g></g></svg>