<svg xmlns="http://www.w3.org/2000/svg" viewBox="0 0 1079.27 280.95"><defs><style>.cls-1{fill:#212121;}</style></defs><title>typo-dark</title><g id="Layer_2" data-name="Layer 2"><g id="Layer_3" data-name="Layer 3"><path class="cls-1" d="M28.29,69.07c18.76-3.42,46.2-5.81,74.88-5.81,38.72,0,65.15,6.53,83.35,21.79,14.88,12.37,23.29,31.1,23.29,54.28,0,34.81-23.66,58.55-49.16,67.52V208c19.58,7.41,31,26,37.69,52.3,8.6,33.82,16,64.83,21.35,75.34H169c-4.2-7.82-10.65-30.14-18.21-63.77-7.75-35.23-20.57-46.66-48.63-47.3H77.29V335.64h-49Zm49,119.29H106.5c33.49,0,54.11-17.65,54.11-44.51,0-29.41-20.72-43.23-52.64-43.34-15.66,0-25.65,1.22-30.68,2.51Z" transform="translate(-28.29 -59.1)"/><path class="cls-1" d="M290.53,251.69c1.32,35.38,28.69,50.84,60.29,50.84,22.71,0,39-3.56,53.88-9l7.31,34c-16.72,7.09-39.89,12.39-68.23,12.39-63.38,0-100.51-39.16-100.51-99C243.27,187,276,136,338.75,136c63.46,0,84.11,52.17,84.11,95a103.64,103.64,0,0,1-1.74,20.73Zm85.85-34.41c.22-18.08-7.64-47.57-40.71-47.57-30.38,0-43,27.59-45.22,47.57Z" transform="translate(-28.29 -59.1)"/><path class="cls-1" d="M572.42,335.64l-3.37-21.75h-1.19C556,329.3,535.6,340.05,510.33,340.05c-39.61,0-61.55-28.29-61.55-58.07,0-49.26,43.89-74.2,115.79-73.91v-3.23c0-12.83-5.07-34.16-39.63-34-19.13,0-39.18,6.16-52.49,14.56l-9.78-32c14.75-9,40-17.33,70.76-17.33,62.62,0,80.49,39.48,80.49,82.31v70.29c0,17.75.88,35,3,47ZM565.89,240c-34.83-.46-68.15,6.88-68.15,36.61,0,19.11,12.54,28.12,28.14,28.12,19.7,0,33.9-12.72,38.63-27A37.3,37.3,0,0,0,565.89,267Z" transform="translate(-28.29 -59.1)"/><path class="cls-1" d="M667.84,65.36h49V189.7H718c6.45-10.34,13.37-20,19.8-29.13l70.81-95.21h60.76l-93.16,115,99.25,155.32H817.67L741.13,211.9l-24.29,28.87v94.87h-49Z" transform="translate(-28.29 -59.1)"/><path class="cls-1" d="M953.78,85.78c.05,14.74-10.65,26.63-28.14,26.63-16.36,0-27.1-11.89-27-26.63-.06-15,11-26.68,27.63-26.68C943,59.1,953.61,70.61,953.78,85.78ZM901.49,335.64V140.42h49.4V335.64Z" transform="translate(-28.29 -59.1)"/><path class="cls-1" d="M1060.59,84.51v55.91h47V177.2h-47v86.14c0,23.89,6.37,36,25.25,36a74,74,0,0,0,19.17-2.16l1,37.56c-7.42,2.78-20.36,5.07-35.93,5.07-18.14,0-33.25-6.18-42.42-16.09-10.61-11.21-15.44-29.17-15.44-54.76V177.2H984.36V140.42h27.86V96.2Z" transform="translate(-28.29 -59.1)"/></g></g></svg>